<svg width="84" height="84" viewBox="0 0 84 84" fill="none" xmlns="http://www.w3.org/2000/svg">
<g clip-path="url(#clip0)">
<path d="M66.37 25.3501V30.4301H16.92V25.3501H66.37ZM16.92 58.0001V52.9001H58C58.5268 52.8959 59.047 52.7838 59.5286 52.5705C60.0102 52.3572 60.443 52.0473 60.8 51.6601C61.164 51.2662 61.4522 50.8085 61.65 50.3101C61.8719 49.7713 61.9808 49.1927 61.97 48.6101C61.9761 48.0344 61.8673 47.4633 61.65 46.9301C61.4503 46.4176 61.1626 45.9438 60.8 45.5301C60.4492 45.1138 60.017 44.7735 59.53 44.5301C59.0498 44.314 58.5263 44.2113 58 44.2301H16.92V39.1501H58C59.1202 39.1458 60.2271 39.3918 61.24 39.8701C62.2566 40.3534 63.1674 41.0331 63.92 41.8701C64.7115 42.7475 65.3321 43.7649 65.75 44.8701C66.2035 46.0679 66.4307 47.3394 66.42 48.6201C66.4333 49.8945 66.206 51.16 65.75 52.3501C65.3319 53.4552 64.7113 54.4726 63.92 55.3501C63.1674 56.1871 62.2566 56.8668 61.24 57.3501C60.2216 57.8043 59.1149 58.0263 58 58.0001H16.92Z" fill="#5A4D32"/>
<path d="M41.66 81.4301C63.6244 81.4301 81.43 63.6245 81.43 41.6601C81.43 19.6958 63.6244 1.89014 41.66 1.89014C19.6957 1.89014 1.89001 19.6958 1.89001 41.6601C1.89001 63.6245 19.6957 81.4301 41.66 81.4301Z" stroke="#5A4D32" stroke-width="3.79" stroke-miterlimit="10"/>
</g>
<defs>
<clipPath id="clip0">
<rect width="83.33" height="83.33" fill="white"/>
</clipPath>
</defs>
</svg>
